<mxfile host="Electron" agent="Mozilla/5.0 (Macintosh; Intel Mac OS X 10_15_7) AppleWebKit/537.36 (KHTML, like Gecko) draw.io/26.1.1 Chrome/132.0.6834.210 Electron/34.3.3 Safari/537.36" version="26.1.1">
  <diagram id="C5RBs43oDa-KdzZeNtuy" name="Page-1">
    <mxGraphModel dx="666" dy="1635" grid="1" gridSize="10" guides="1" tooltips="1" connect="1" arrows="1" fold="1" page="1" pageScale="1" pageWidth="827" pageHeight="1169" math="0" shadow="0">
      <root>
        <mxCell id="WIyWlLk6GJQsqaUBKTNV-0" />
        <mxCell id="WIyWlLk6GJQsqaUBKTNV-1" parent="WIyWlLk6GJQsqaUBKTNV-0" />
        <mxCell id="vWHWIzjzI2Sjzs2mLQCH-4" style="edgeStyle=orthogonalEdgeStyle;rounded=0;orthogonalLoop=1;jettySize=auto;html=1;" edge="1" parent="WIyWlLk6GJQsqaUBKTNV-1" source="vWHWIzjzI2Sjzs2mLQCH-0" target="vWHWIzjzI2Sjzs2mLQCH-1">
          <mxGeometry relative="1" as="geometry" />
        </mxCell>
        <mxCell id="vWHWIzjzI2Sjzs2mLQCH-0" value="Start" style="strokeWidth=2;html=1;shape=mxgraph.flowchart.start_1;whiteSpace=wrap;" vertex="1" parent="WIyWlLk6GJQsqaUBKTNV-1">
          <mxGeometry x="60" y="-20" width="100" height="60" as="geometry" />
        </mxCell>
        <mxCell id="vWHWIzjzI2Sjzs2mLQCH-5" style="edgeStyle=orthogonalEdgeStyle;rounded=0;orthogonalLoop=1;jettySize=auto;html=1;exitX=1;exitY=0.5;exitDx=0;exitDy=0;" edge="1" parent="WIyWlLk6GJQsqaUBKTNV-1" source="vWHWIzjzI2Sjzs2mLQCH-1" target="vWHWIzjzI2Sjzs2mLQCH-2">
          <mxGeometry relative="1" as="geometry" />
        </mxCell>
        <mxCell id="vWHWIzjzI2Sjzs2mLQCH-1" value="Data Situation Analysis" style="rounded=1;whiteSpace=wrap;html=1;absoluteArcSize=1;arcSize=14;strokeWidth=2;" vertex="1" parent="WIyWlLk6GJQsqaUBKTNV-1">
          <mxGeometry x="200" y="-20" width="156" height="60" as="geometry" />
        </mxCell>
        <mxCell id="vWHWIzjzI2Sjzs2mLQCH-8" style="edgeStyle=orthogonalEdgeStyle;rounded=0;orthogonalLoop=1;jettySize=auto;html=1;" edge="1" parent="WIyWlLk6GJQsqaUBKTNV-1" source="vWHWIzjzI2Sjzs2mLQCH-2" target="vWHWIzjzI2Sjzs2mLQCH-3">
          <mxGeometry relative="1" as="geometry" />
        </mxCell>
        <mxCell id="vWHWIzjzI2Sjzs2mLQCH-2" value="Disclosure Risk Control" style="rounded=1;whiteSpace=wrap;html=1;absoluteArcSize=1;arcSize=14;strokeWidth=2;" vertex="1" parent="WIyWlLk6GJQsqaUBKTNV-1">
          <mxGeometry x="430" y="-20" width="156" height="60" as="geometry" />
        </mxCell>
        <mxCell id="vWHWIzjzI2Sjzs2mLQCH-7" style="edgeStyle=orthogonalEdgeStyle;rounded=0;orthogonalLoop=1;jettySize=auto;html=1;entryX=0;entryY=0.5;entryDx=0;entryDy=0;exitX=0.5;exitY=1;exitDx=0;exitDy=0;endArrow=classic;endFill=1;startArrow=classic;startFill=1;" edge="1" parent="WIyWlLk6GJQsqaUBKTNV-1" source="vWHWIzjzI2Sjzs2mLQCH-1" target="vWHWIzjzI2Sjzs2mLQCH-3">
          <mxGeometry relative="1" as="geometry" />
        </mxCell>
        <mxCell id="vWHWIzjzI2Sjzs2mLQCH-3" value="Impact Management" style="rounded=1;whiteSpace=wrap;html=1;absoluteArcSize=1;arcSize=14;strokeWidth=2;" vertex="1" parent="WIyWlLk6GJQsqaUBKTNV-1">
          <mxGeometry x="430" y="90" width="156" height="60" as="geometry" />
        </mxCell>
        <mxCell id="vWHWIzjzI2Sjzs2mLQCH-9" value="End" style="strokeWidth=2;html=1;shape=mxgraph.flowchart.terminator;whiteSpace=wrap;" vertex="1" parent="WIyWlLk6GJQsqaUBKTNV-1">
          <mxGeometry x="670" y="-20" width="100" height="60" as="geometry" />
        </mxCell>
        <mxCell id="vWHWIzjzI2Sjzs2mLQCH-10" style="edgeStyle=orthogonalEdgeStyle;rounded=0;orthogonalLoop=1;jettySize=auto;html=1;entryX=0;entryY=0.5;entryDx=0;entryDy=0;entryPerimeter=0;" edge="1" parent="WIyWlLk6GJQsqaUBKTNV-1" source="vWHWIzjzI2Sjzs2mLQCH-2" target="vWHWIzjzI2Sjzs2mLQCH-9">
          <mxGeometry relative="1" as="geometry" />
        </mxCell>
      </root>
    </mxGraphModel>
  </diagram>
</mxfile>
